<svg width="264" height="264" viewBox="0 0 264 264" fill="none" xmlns="http://www.w3.org/2000/svg">
<ellipse cx="134" cy="250" rx="99" ry="3" fill="#EDEDED"/>
<rect x="93.2119" y="233" width="4.86645" height="12.9772" transform="rotate(0.699161 93.2119 233)" fill="#C4C4C4"/>
<rect x="124.562" y="231.433" width="4.86645" height="12.9772" transform="rotate(-30 124.562 231.433)" fill="#C4C4C4"/>
<rect x="147.017" y="231" width="4.86645" height="12.9772" transform="rotate(20.3473 147.017 231)" fill="#C4C4C4"/>
<rect x="165.115" y="230.433" width="4.86645" height="12.9772" transform="rotate(-30 165.115 230.433)" fill="#C4C4C4"/>
<rect x="171.333" y="241.203" width="4.86645" height="4.86645" transform="rotate(-30 171.333 241.203)" fill="#505050"/>
<rect x="142.692" y="242.66" width="4.86645" height="4.86645" transform="rotate(20.3473 142.692 242.66)" fill="#505050"/>
<rect x="130.779" y="242.203" width="4.86645" height="4.86645" transform="rotate(-30 130.779 242.203)" fill="#505050"/>
<rect x="93.0601" y="245.436" width="4.86645" height="4.86645" transform="rotate(0.699161 93.0601 245.436)" fill="#505050"/>
<path d="M83 180.799C95.4356 173.62 111.337 177.88 118.517 190.316L133.017 215.431C136.607 221.649 134.476 229.599 128.258 233.189C122.041 236.779 114.09 234.649 110.5 228.431L83 180.799Z" fill="#4FAC68"/>
<path d="M122 181C134.436 173.82 150.337 178.081 157.517 190.517L172.017 215.631C175.607 221.849 173.476 229.8 167.258 233.39C161.041 236.98 153.09 234.849 149.5 228.631L122 181Z" fill="#4FAC68"/>
<path fill-rule="evenodd" clip-rule="evenodd" d="M132.609 43.1144C123.007 40.5414 113.137 46.2399 110.564 55.8423L83.2499 157.78C82.6656 159.409 82.2096 161.1 81.8943 162.839L80.5949 167.689C78.6708 174.869 81.372 182.2 86.8722 186.516C92.6263 195.006 102.352 200.585 113.38 200.585H157.474C175.148 200.585 189.474 186.258 189.474 168.585C189.474 164.317 188.639 160.244 187.122 156.52L192.928 146.464C194.033 144.551 193.378 142.104 191.464 141C189.551 139.895 187.105 140.551 186 142.464L182.462 148.592C176.598 141.272 167.583 136.585 157.474 136.585H126.199L145.337 65.1598C147.91 55.5574 142.212 45.6873 132.609 43.1144Z" fill="#58C173"/>
<path d="M81.3042 169.569C95.6636 169.569 107.304 181.21 107.304 195.569V224.569C107.304 231.749 101.484 237.569 94.3042 237.569C87.1245 237.569 81.3042 231.749 81.3042 224.569V169.569Z" fill="#58C173"/>
<path d="M183.228 175.982C169.65 171.309 154.855 178.527 150.181 192.105L140.743 219.526C138.406 226.315 142.015 233.712 148.804 236.049C155.593 238.386 162.99 234.777 165.327 227.988L183.228 175.982Z" fill="#58C173"/>
<path d="M116.69 35.0281C115.757 33.0259 116.623 30.646 118.625 29.7124C120.627 28.7787 123.007 29.645 123.941 31.6471L137.699 61.1509C138.632 63.153 137.766 65.5329 135.764 66.4666C133.762 67.4002 131.382 66.534 130.448 64.5318L116.69 35.0281Z" fill="#58C173"/>
<path d="M129.28 29.1388C129.242 26.93 131.001 25.1082 133.21 25.0697C135.419 25.0312 137.241 26.7906 137.279 28.9994L137.844 61.2964C137.882 63.5052 136.123 65.327 133.914 65.3655C131.706 65.404 129.884 63.6446 129.845 61.4358L129.28 29.1388Z" fill="#58C173"/>
<path d="M115.637 58.8706C117.446 52.1226 124.382 48.1181 131.13 49.9262C137.878 51.7344 141.882 58.6704 140.074 65.4183L135.907 80.9688C134.098 87.7167 127.162 91.7212 120.414 89.9131C113.666 88.105 109.662 81.1689 111.47 74.421L115.637 58.8706Z" fill="#C4C4C4"/>
<path d="M112.465 51.0932C116.783 42.1386 127.542 38.3791 136.497 42.6961C145.452 47.0132 149.211 57.7721 144.894 66.7267C140.576 75.6814 129.817 79.4409 120.862 75.1238C111.907 70.8068 108.148 60.0479 112.465 51.0932Z" fill="#58C173"/>
<path d="M122.089 84.5379C121.544 85.0822 120.615 84.8331 120.416 84.0896L119.519 80.7435C119.32 80 120 79.3196 120.744 79.5188L124.09 80.4154C124.834 80.6146 125.083 81.5441 124.538 82.0884L122.089 84.5379Z" fill="#505050"/>
<g clip-path="url(#clip0)">
<path d="M109.693 45.8504L113.75 47.3275L115.069 43.2168L116.444 47.3094L120.48 45.778L118.138 49.4043L121.852 51.6054L117.556 52.0347L118.15 56.3107L115.136 53.2198L112.164 56.3509L112.702 52.0672L108.4 51.6955L112.084 49.4449L109.693 45.8504Z" fill="#C4C4C4"/>
<path fill-rule="evenodd" clip-rule="evenodd" d="M72.7884 38.7409L115.792 50.2664L87.6535 75.5971L72.7884 38.7409Z" fill="white" stroke="#474747" stroke-width="1.5" stroke-linecap="round" stroke-linejoin="round"/>
<path d="M114.288 50.9249L78.499 53.4175" stroke="#474747" stroke-width="1.5" stroke-linecap="round" stroke-linejoin="round"/>
<path fill-rule="evenodd" clip-rule="evenodd" d="M78.8027 54.0569L71.0748 64.4434L81.7658 62.8495" fill="white"/>
<path d="M78.8027 54.0569L71.0748 64.4434L81.7658 62.8495" stroke="#474747" stroke-width="1.5" stroke-linecap="round" stroke-linejoin="round"/>
</g>
<defs>
<clipPath id="clip0">
<rect x="58" y="65.4336" width="55.1899" height="55.1899" rx="27.5949" transform="rotate(-66.0385 58 65.4336)" fill="white"/>
</clipPath>
</defs>
</svg>
