<svg width="240" height="202" viewBox="0 0 240 202" fill="none" xmlns="http://www.w3.org/2000/svg">
<rect x="166.389" y="189.056" width="3.52706" height="9.40551" transform="rotate(9.23545 166.389 189.056)" fill="#C4C4C4"/>
<rect x="190.241" y="188.076" width="3.52706" height="9.40551" transform="rotate(-30 190.241 188.076)" fill="#C4C4C4"/>
<rect x="206.028" y="187.489" width="3.52706" height="9.40551" transform="rotate(15 206.028 187.489)" fill="#C4C4C4"/>
<rect x="219.633" y="187.684" width="3.52706" height="9.40551" transform="rotate(-30 219.633 187.684)" fill="#C4C4C4"/>
<rect x="224.14" y="195.49" width="3.52706" height="3.52706" transform="rotate(-30 224.14 195.49)" fill="#505050"/>
<rect x="203.695" y="196.195" width="3.52706" height="3.52706" transform="rotate(15 203.695 196.195)" fill="#505050"/>
<rect x="194.748" y="195.882" width="3.52706" height="3.52706" transform="rotate(-30 194.748 195.882)" fill="#505050"/>
<rect x="164.943" y="197.953" width="3.52706" height="3.52706" transform="rotate(9.23545 164.943 197.953)" fill="#505050"/>
<path d="M159.758 149.987C169.325 144.463 181.558 147.741 187.082 157.308L196.25 173.187C199.012 177.971 197.373 184.088 192.589 186.849C187.806 189.611 181.689 187.972 178.927 183.189L159.758 149.987Z" fill="#4FAC68"/>
<path d="M188.366 149.987C197.934 144.463 210.167 147.741 215.691 157.308L224.858 173.187C227.62 177.971 225.981 184.088 221.198 186.849C216.414 189.611 210.297 187.972 207.536 183.189L188.366 149.987Z" fill="#4FAC68"/>
<path fill-rule="evenodd" clip-rule="evenodd" d="M173.987 48.7736C166.625 48.5924 160.509 54.414 160.328 61.7766L158.277 145.096C158.175 149.233 159.969 152.976 162.866 155.494C167.18 162.097 174.638 166.461 183.115 166.461H213.119C226.467 166.461 237.288 155.64 237.288 142.291C237.288 138.534 236.431 134.976 234.901 131.804L239.423 123.972C240.289 122.472 239.775 120.555 238.276 119.689C236.776 118.823 234.859 119.337 233.993 120.836L230.997 126.026C226.576 121.169 220.203 118.121 213.119 118.121H185.62L186.99 62.4328C187.171 55.0703 181.35 48.9549 173.987 48.7736Z" fill="#58C173"/>
<path d="M158.89 142.028C169.937 142.028 178.892 150.983 178.892 162.03V180.366C178.892 185.89 174.415 190.367 168.891 190.367C163.367 190.367 158.89 185.89 158.89 180.366V142.028Z" fill="#58C173"/>
<path d="M232.858 146.583C222.412 142.987 211.03 148.541 207.434 158.986L201.467 176.324C199.669 181.547 202.446 187.238 207.668 189.036C212.891 190.833 218.583 188.057 220.38 182.834L232.858 146.583Z" fill="#58C173"/>
<path d="M162.401 45.6294C161.72 44.8175 161.826 43.6071 162.638 42.9259C163.449 42.2446 164.66 42.3505 165.341 43.1624L179.196 59.6739C179.877 60.4858 179.771 61.6962 178.959 62.3774C178.147 63.0587 176.937 62.9528 176.256 62.1409L162.401 45.6294Z" fill="#C4C4C4" stroke="#58C173" stroke-width="3.91896"/>
<path d="M172.195 39.5435C171.903 38.5246 172.492 37.4619 173.511 37.1697C174.53 36.8776 175.592 37.4667 175.885 38.4856L181.776 59.0288C182.068 60.0477 181.479 61.1105 180.46 61.4026C179.441 61.6948 178.378 61.1056 178.086 60.0867L172.195 39.5435Z" fill="#C4C4C4" stroke="#58C173" stroke-width="3.9192"/>
<path d="M165.719 62.7773C166.663 57.8027 171.46 54.5348 176.435 55.4782C181.409 56.4217 184.677 61.2191 183.734 66.1937L181.559 77.6575C180.615 82.6321 175.818 85.9 170.843 84.9566C165.869 84.0131 162.601 79.2157 163.544 74.2411L165.719 62.7773Z" fill="#C4C4C4"/>
<path d="M160.738 59.8178C162.11 52.582 169.089 47.8287 176.324 49.201C183.56 50.5732 188.313 57.5514 186.941 64.7871C185.568 72.0229 178.59 76.7762 171.354 75.4039C164.118 74.0317 159.365 67.0535 160.738 59.8178Z" fill="#58C173"/>
<path d="M172.415 79.3236C171.871 79.8679 170.941 79.6189 170.742 78.8754L170.409 77.6319C170.21 76.8883 170.89 76.2079 171.634 76.4071L172.877 76.7403C173.621 76.9395 173.87 77.8689 173.325 78.4133L172.415 79.3236Z" fill="#505050"/>
<g clip-path="url(#clip0)">
<path fill-rule="evenodd" clip-rule="evenodd" d="M23.335 4.23133L27.1716 36.2705L2.5451 24.1662L23.335 4.23133Z" fill="white" stroke="#474747" stroke-width="1.5" stroke-linecap="round" stroke-linejoin="round"/>
<path d="M26.5 35.5L14.9996 12.0291" stroke="#474747" stroke-width="1.5" stroke-linecap="round" stroke-linejoin="round"/>
<path fill-rule="evenodd" clip-rule="evenodd" d="M14.6514 12.4058L5.5805 10.0059L9.5344 16.7692" fill="white"/>
<path d="M14.6514 12.4058L5.5805 10.0059L9.5344 16.7692" stroke="#474747" stroke-width="1.5" stroke-linecap="round" stroke-linejoin="round"/>
</g>
<defs>
<clipPath id="clip0">
<rect x="1.83618" width="40" height="40" rx="20" transform="rotate(2.13 1.83618 0)" fill="white"/>
</clipPath>
</defs>
</svg>
